<svg viewBox="0 0 50 50" xmlns="http://www.w3.org/2000/svg"><path d="M31.428 15.357H13.215A3.214 3.214 0 0 0 10 18.571v18.215A3.214 3.214 0 0 0 13.214 40H31.43a3.214 3.214 0 0 0 3.214-3.214V18.57a3.214 3.214 0 0 0-3.215-3.214zM32.5 36.786c0 .591-.48 1.071-1.072 1.071H13.215c-.591 0-1.071-.48-1.071-1.071V18.57c0-.591.48-1.071 1.071-1.071H31.43c.591 0 1.071.48 1.071 1.071v18.215z"/><path d="M36.786 10H17.5a3.214 3.214 0 0 0-3.214 3.214 1.071 1.071 0 1 0 2.143 0c0-.591.48-1.071 1.071-1.071h19.286c.591 0 1.071.48 1.071 1.071V32.5c0 .592-.48 1.071-1.071 1.071a1.071 1.071 0 1 0 0 2.143A3.214 3.214 0 0 0 40 32.5V13.214A3.214 3.214 0 0 0 36.786 10z"/></svg>