<svg viewBox="0 0 23 21"><path fill-rule="evenodd" d="M11.502 17.749c-.668 0-1.958-.132-1.958-.132-1.812 1.347-5.917 2.763-6.578 2.904-.661.14-.44-.237-.44-.237 2.226-1.982 2.624-4.052 2.624-4.052C2.204 14.674.273 12.06.273 9.099.273 4.322 5.3.45 11.502.45c6.202 0 11.23 3.872 11.23 8.649 0 4.777-5.028 8.65-11.23 8.65zM6.609 6.762H3.255a.565.565 0 0 0-.571.557c0 .307.256.557.571.557h1.09V11.8a.556.556 0 0 0 .557.542h.122a.56.56 0 0 0 .391-.158.543.543 0 0 0 .164-.384V7.876h1.03c.316 0 .571-.25.571-.557a.564.564 0 0 0-.571-.557zm4.801 4.861L9.738 7.158l-.005-.005c-.107-.271-.416-.469-.784-.469-.408 0-.745.243-.812.562a.536.536 0 0 0-.032.073l-1.644 4.304a.538.538 0 0 0 .339.691.558.558 0 0 0 .707-.332l.285-.792h2.287l.285.792a.558.558 0 0 0 .707.332.539.539 0 0 0 .339-.691zm3.26-.328h-1.558V7.289a.612.612 0 0 0-.62-.605.612.612 0 0 0-.619.605v4.318c0 .034.005.065.01.097a.512.512 0 0 0 .508.603h2.279a.513.513 0 0 0 .519-.506.513.513 0 0 0-.519-.506zm4.985.184L17.917 9.25l1.571-1.534a.524.524 0 0 0 0-.752.554.554 0 0 0-.771 0l-1.944 1.898V7.289a.611.611 0 0 0-.619-.605.611.611 0 0 0-.619.605v4.451c0 .334.277.605.619.605a.612.612 0 0 0 .619-.605v-1.373l.353-.345 1.644 2.107a.562.562 0 0 0 .775.107.532.532 0 0 0 .11-.757zM8.923 8.037l.025.002.768 2.139H8.154l.769-2.141z"/></svg>