<?xml version="1.0" encoding="UTF-8"?>
<svg viewBox="0 0 53 51" fill="none" xmlns="http://www.w3.org/2000/svg" xmlns:xlink="http://www.w3.org/1999/xlink"><path d="M34.87 30.2v10.07l-8.71 5.03V35.23l8.71-5.03z" fill="#ED8E57"/><path d="M17.44 30.2l-8.72-5.04V15.1l8.72 5.03V30.2z" fill="#1D1D1B"/><path d="M26.16 35.23V45.3l-8.72-5.03v10.06L8.72 45.3V35.23L0 30.2V20.13L17.44 30.2l8.72 5.03z" fill="#F2AF5D"/><path d="M26.16 25.16v.01l-8.72 5.03-8.72-5.04L0 20.13l8.72-5.03h.01l8.71 5.03h.01l8.71 5.03z" fill="#FBC56F"/><path d="M26.16 45.3l-8.72 5.03V40.27l8.72 5.03z" fill="#DB8450"/><path d="M26.16 15.1l8.72-5.03 8.71 5.03-8.71 5.04-8.72-5.04z" fill="#1D1D1B"/><path d="M17.44 30.2l-8.72-5.03V15.1l8.72 5.04V30.2z" fill="#B53D55"/><path d="M17.44 20.14L8.72 15.1l8.72-5.03-8.72-5.04L17.44 0l8.72 5.03L34.88 0l8.71 5.03L26.16 15.1l-8.72 5.04z" fill="#B21E4B"/><path d="M43.6 15.1h-.01l-3.19 1.84-5.52 3.19-.01.01-8.71 5.03-8.72 5.03V20.14l.01-.01 8.71-5.03 8.72-5.03 8.71-5.04.01 10.07z" fill="#961A3E"/><path d="M8.72 15.1V5.03l8.72 5.04-8.72 5.03z" fill="#B64F5B"/><path d="M26.16 15.1l8.72-5.04 8.71 5.04-8.71 5.03-8.72-5.03z" fill="#483076"/><path d="M52.31 20.13V30.2l-8.72 5.03V45.3l-8.71 5.03-.01-10.06V30.2l.01-10.07 8.71-5.03v10.06l8.72-5.03z" fill="#402559"/><path d="M34.87 30.2l-8.71-5.04v.01l-8.72 5.03 8.72 5.03 8.71-5.03z" fill="#FBC56F"/><path d="M34.88 20.13v30.2l-8.72-5.03 8.71-5.03V30.2l-8.71-5.04V15.1l8.72 5.03z" fill="#50368A"/><path d="M43.59 15.1l8.72 5.03-8.72 5.03V15.1z" fill="#452E6F"/></svg>