<svg viewBox="0 0 130 30" fill="none" xmlns="http://www.w3.org/2000/svg"><path d="M32.092 22.607h9.9v-2.893H35.79v-4.178h5.766V12.75H35.79V9.214h6.2V6.43h-9.899v16.178zM53.414 6.107c-2.61 0-4.678.75-6.092 2.143-1.414 1.393-2.067 3.536-2.067 6.214 0 2.679.653 4.822 2.067 6.215 1.414 1.392 3.373 2.142 6.092 2.142 2.611 0 4.678-.75 6.092-2.142 1.415-1.393 2.067-3.536 2.067-6.215 0-2.678-.653-4.714-2.067-6.214-1.523-1.393-3.48-2.143-6.092-2.143zm-.109 13.822c-1.414 0-2.502-.429-3.263-1.393-.762-.965-1.088-2.25-1.088-4.072 0-1.821.326-3.214 1.088-4.071C50.803 9.429 51.892 9 53.305 9c2.829 0 4.352 1.821 4.352 5.464 0 3.643-1.414 5.465-4.352 5.465zM71.582 13.286c-1.197-.536-1.959-.965-2.285-1.179a4.712 4.712 0 0 1-.761-.643c-.11-.214-.218-.535-.218-.75 0-.535.218-.857.544-1.178.326-.322.87-.429 1.632-.429.544 0 1.196.107 1.74.214.544.108 1.306.429 2.285.75l1.196-2.678c-.979-.429-1.74-.75-2.61-.964a9.407 9.407 0 0 0-2.503-.322c-1.849 0-3.263.429-4.242 1.286-.98.857-1.523 1.928-1.523 3.428 0 .75.109 1.393.435 2.036a5.663 5.663 0 0 0 1.305 1.5c.544.429 1.306.857 2.394 1.393s1.849.857 2.175 1.071c.327.215.653.429.87.75.218.215.327.536.327.858 0 .535-.218.964-.653 1.285-.435.322-1.088.429-1.849.429a8.24 8.24 0 0 1-2.176-.322 21.02 21.02 0 0 1-2.937-1.071v3.214c1.414.643 3.046.965 4.895.965 1.959 0 3.482-.429 4.678-1.286 1.088-.857 1.632-2.036 1.632-3.429a4.398 4.398 0 0 0-.87-2.678c-.762-.857-1.85-1.607-3.481-2.25zM84.962 6.429h-5.33v16.178h4.895c3.046 0 5.33-.75 6.962-2.143 1.632-1.393 2.394-3.428 2.394-6.107 0-2.464-.762-4.5-2.285-5.893-1.632-1.393-3.807-2.035-6.636-2.035zm-.217 13.392h-1.523V9.214h1.958c3.264 0 4.895 1.715 4.895 5.25-.108 3.536-1.849 5.357-5.33 5.357zM101.498 6.321l-6.092 16.286h3.916l1.197-3.857h6.2l1.197 3.857h3.917l-5.984-16.286h-4.351zm0 9.536c1.197-3.75 1.958-6.107 2.176-7.071.108.214.217.643.326 1.071.109.429.761 2.464 1.958 5.893h-4.46v.107zM128.912 19.286C129.674 18 130 16.393 130 14.464c0-2.678-.653-4.714-2.067-6.214-1.414-1.393-3.372-2.143-6.092-2.143-2.61 0-4.678.75-6.092 2.143-1.414 1.393-2.067 3.536-2.067 6.214 0 2.679.653 4.822 2.067 6.215 1.414 1.392 3.372 2.142 6.092 2.142h.218l3.154 3.643h4.678l-4.134-4.393c1.306-.535 2.394-1.5 3.155-2.785zm-7.071.643c-1.414 0-2.502-.429-3.264-1.393-.761-.965-1.087-2.25-1.087-4.072 0-1.821.326-3.214 1.087-4.071.762-.964 1.85-1.393 3.264-1.393 2.828 0 4.352 1.821 4.352 5.464-.11 3.643-1.524 5.465-4.352 5.465zM23.824 11.25v-4.5L11.966 0 0 6.75v13.393l4.025 2.25L17.405 30v-4.607l-13.38-7.5V9l7.941-4.393L19.8 9v9.107l-.544.322-2.72-1.5-2.72-1.608-4.024 2.25 9.247 5.25 4.786-2.678V11.25z"/></svg>