<svg width="130" height="30" viewBox="0 0 130 30" fill="none" xmlns="http://www.w3.org/2000/svg">
  <path d="M0 16.1786H9.89958V13.2857H3.69875V9.10714H9.46444V6.32143H3.69875V2.78571H9.89958V0H0V16.1786Z" transform="translate(32.0921 6.42859)" fill="#034EC6"/>
  <path d="M8.159 0C5.54812 0 3.48117 0.75 2.06695 2.14286C0.652721 3.53571 0 5.67857 0 8.35714C0 11.0357 0.652721 13.1786 2.06695 14.5714C3.48117 15.9643 5.43933 16.7143 8.159 16.7143C10.7699 16.7143 12.8368 15.9643 14.251 14.5714C15.6653 13.1786 16.318 11.0357 16.318 8.35714C16.318 5.67857 15.6653 3.64286 14.251 2.14286C12.728 0.75 10.7699 0 8.159 0ZM8.05021 13.8214C6.63598 13.8214 5.54812 13.3929 4.78661 12.4286C4.02511 11.4643 3.69875 10.1786 3.69875 8.35714C3.69875 6.53571 4.02511 5.14286 4.78661 4.28571C5.54812 3.32143 6.63598 2.89286 8.05021 2.89286C10.8787 2.89286 12.4017 4.71429 12.4017 8.35714C12.4017 12 10.9874 13.8214 8.05021 13.8214Z" transform="translate(45.2552 6.10715)" fill="#034EC6"/>
  <path d="M6.85356 7.17857C5.65691 6.64286 4.8954 6.21429 4.56904 6C4.24268 5.78571 4.0251 5.57143 3.80753 5.35714C3.69875 5.14286 3.58996 4.82143 3.58996 4.60714C3.58996 4.07143 3.80753 3.75 4.13389 3.42857C4.46025 3.10714 5.00419 3 5.76569 3C6.30963 3 6.96235 3.10714 7.50628 3.21429C8.05021 3.32143 8.81172 3.64286 9.7908 3.96429L10.9874 1.28571C10.0084 0.857143 9.24686 0.535714 8.37657 0.321429C7.61506 0.107143 6.74477 0 5.87448 0C4.02511 0 2.61088 0.428572 1.6318 1.28571C0.65272 2.14286 0.108785 3.21429 0.108785 4.71429C0.108785 5.46429 0.217573 6.10714 0.543933 6.75C0.870293 7.28571 1.30544 7.82143 1.84937 8.25C2.39331 8.67857 3.15481 9.10714 4.24268 9.64286C5.33055 10.1786 6.09205 10.5 6.41841 10.7143C6.74477 10.9286 7.07113 11.1429 7.2887 11.4643C7.50627 11.6786 7.61506 12 7.61506 12.3214C7.61506 12.8571 7.39749 13.2857 6.96235 13.6071C6.5272 13.9286 5.87447 14.0357 5.11297 14.0357C4.46025 14.0357 3.69875 13.9286 2.93724 13.7143C2.17573 13.5 1.19665 13.1786 0 12.6429V15.8571C1.41423 16.5 3.04603 16.8214 4.8954 16.8214C6.85356 16.8214 8.37657 16.3929 9.57323 15.5357C10.6611 14.6786 11.205 13.5 11.205 12.1071C11.205 11.0357 10.8787 10.1786 10.3347 9.42857C9.57322 8.57143 8.48536 7.82143 6.85356 7.17857Z" transform="translate(64.728 6.10715)" fill="#034EC6"/>
  <path d="M5.33055 0H0V16.1786H4.8954C7.94142 16.1786 10.2259 15.4286 11.8577 14.0357C13.4895 12.6429 14.2511 10.6071 14.2511 7.92857C14.2511 5.46429 13.4895 3.42857 11.9665 2.03571C10.3347 0.642857 8.159 0 5.33055 0ZM5.11298 13.3929H3.58996V2.78571H5.54812C8.81172 2.78571 10.4435 4.5 10.4435 8.03572C10.3347 11.5714 8.59415 13.3929 5.11298 13.3929Z" transform="translate(79.6318 6.42859)" fill="#034EC6"/>
  <path d="M6.09206 0L0 16.2857H3.91632L5.11298 12.4286H11.3138L12.5105 16.2857H16.4268L10.4435 0H6.09206ZM6.09206 9.53571C7.28871 5.78571 8.05022 3.42857 8.26779 2.46429C8.37658 2.67857 8.48536 3.10714 8.59414 3.53571C8.70293 3.96429 9.35565 6 10.5523 9.42857H6.09206V9.53571Z" transform="translate(95.4058 6.32147)" fill="#034EC6"/>
  <path d="M15.2301 13.1786C15.9916 11.8929 16.318 10.2857 16.318 8.35714C16.318 5.67857 15.6653 3.64286 14.251 2.14286C12.8368 0.75 10.8787 0 8.159 0C5.54812 0 3.48117 0.75 2.06695 2.14286C0.652721 3.53571 0 5.67857 0 8.35714C0 11.0357 0.652721 13.1786 2.06695 14.5714C3.48117 15.9643 5.43933 16.7143 8.159 16.7143H8.37656L11.5314 20.3571H16.2092L12.0753 15.9643C13.3808 15.4286 14.4686 14.4643 15.2301 13.1786ZM8.159 13.8214C6.74477 13.8214 5.6569 13.3929 4.8954 12.4286C4.13389 11.4643 3.80753 10.1786 3.80753 8.35714C3.80753 6.53572 4.13389 5.14286 4.8954 4.28571C5.6569 3.32143 6.74477 2.89286 8.159 2.89286C10.9874 2.89286 12.5105 4.71429 12.5105 8.35714C12.4017 12 10.9874 13.8214 8.159 13.8214Z" transform="translate(113.682 6.10715)" fill="#034EC6"/>
  <path d="M23.8243 11.25V6.75L11.9665 0L0 6.75V11.25V20.1429L4.0251 22.3929L17.4059 30V25.3929L4.0251 17.8929V9L11.9665 4.60714L19.7992 9V18.1071L19.2552 18.4286L16.5356 16.9286L13.8159 15.3214L9.7908 17.5714L19.0377 22.8214L23.8243 20.1429V11.25Z" fill="#034EC6"/>
</svg>
