<svg viewBox="0 0 43 16"><path d="M4.3 15.72c-.41 0-.77-.05-1.05-.14-.28-.1-.5-.2-.66-.32a1.28 1.28 0 0 1-.34-.33.63.63 0 0 1-.1-.21 1 1 0 0 1 .08-.37 1.67 1.67 0 0 1 .45-.67c.09-.08.17-.12.24-.12.1 0 .17.06.23.18l.1.1.2.16c.1.06.22.1.36.15.14.05.31.07.5.07.4 0 .74-.12 1-.37.26-.26.4-.6.4-1.03 0-.3-.08-.56-.22-.8a2.68 2.68 0 0 0-.55-.65c-.22-.2-.48-.4-.78-.59l-.9-.6c-.3-.21-.6-.44-.9-.68a4.5 4.5 0 0 1-1.33-1.88 4.16 4.16 0 0 1 .02-2.68c.15-.44.35-.86.61-1.26a6.65 6.65 0 0 1 3.4-2.64C5.52.9 5.97.82 6.43.82c.39 0 .74.06 1.05.19a2.16 2.16 0 0 1 1.3 1.33 3.18 3.18 0 0 1-.02 2.15 5.97 5.97 0 0 1-2.9 3.07c-.28.1-.51.16-.71.16a.98.98 0 0 1-.48-.11 1.44 1.44 0 0 1-.35-.3c-.1-.13-.16-.26-.22-.39a1.04 1.04 0 0 1-.07-.36c0-.08 0-.14.02-.16a.1.1 0 0 1 .1-.03c.05 0 .1 0 .17.03l.22.02c.28 0 .58-.1.91-.29a4.41 4.41 0 0 0 1.67-1.69c.2-.35.3-.69.3-1.02 0-.34-.08-.6-.25-.8-.16-.2-.44-.3-.84-.3-.25 0-.52.05-.81.15a5.3 5.3 0 0 0-2.44 1.8c-.21.3-.38.6-.51.94a2.97 2.97 0 0 0 .02 2.08c.14.3.33.58.56.83.23.24.5.47.79.68.29.2.59.42.9.62.3.2.6.42.9.64.29.21.55.45.78.72.23.26.42.55.55.88a2.9 2.9 0 0 1-.64 3.2 3 3 0 0 1-2.12.86zM12.25 15.56a3.51 3.51 0 0 1-2.4-.97 3.61 3.61 0 0 1-.78-1.18 4.34 4.34 0 0 1-.28-1.63 5.96 5.96 0 0 1 .92-3.17c.29-.43.63-.78 1.02-1.05.4-.27.85-.4 1.32-.4.35 0 .64.07.88.21a1.89 1.89 0 0 1 .9 1.14c.08.23.12.44.12.61a.6.6 0 0 1-.11.35c-.07.1-.15.2-.24.27-.1.07-.2.12-.33.16a.93.93 0 0 1-.3.04.34.34 0 0 1-.23-.1c-.06-.05-.07-.14-.05-.26a3.66 3.66 0 0 1-.08-.31 1.12 1.12 0 0 0-.12-.35.77.77 0 0 0-.22-.3.6.6 0 0 0-.4-.12c-.19 0-.36.08-.54.26-.17.17-.32.4-.46.7a5.51 5.51 0 0 0-.3 3.37c.11.3.26.57.44.77a1.86 1.86 0 0 0 1.46.64c.4 0 .73-.07 1.02-.22.3-.15.54-.34.74-.58.2-.24.37-.51.49-.81.12-.3.21-.6.27-.91.05-.22.14-.37.28-.44.14-.08.28-.1.43-.06.15.04.27.12.38.25.1.13.15.28.13.45a5.12 5.12 0 0 1-.93 2.28 3.7 3.7 0 0 1-1.73 1.17c-.38.12-.81.19-1.3.19z"/><path d="M20.65 14.24a.7.7 0 0 0 .51-.22c.15-.14.28-.32.38-.53.12-.22.2-.45.27-.7.07-.25.13-.49.17-.71.05-.2.12-.36.2-.45.1-.1.19-.15.3-.15.07 0 .15.03.23.08.08.05.16.11.22.19.07.08.13.16.17.26.04.1.07.2.07.3v.04l-.02.1c-.09.32-.2.67-.36 1.04-.14.36-.32.7-.55 1-.23.3-.5.56-.83.76-.32.2-.7.3-1.12.3a1.8 1.8 0 0 1-.92-.22 1.69 1.69 0 0 1-.62-.6c-.2.23-.44.43-.73.58-.28.17-.6.25-.99.25s-.73-.08-1.03-.24c-.3-.15-.54-.37-.74-.63-.2-.28-.36-.6-.46-.96a5.98 5.98 0 0 1 .25-3.44c.27-.66.62-1.22 1.07-1.69a4.6 4.6 0 0 1 3.29-1.44c.27 0 .5.07.66.22.17.15.25.36.25.62a.8.8 0 0 1-.05.36c-.04.06-.1.1-.2.1s-.19 0-.28-.02c-.1-.02-.2-.02-.3-.02a3.04 3.04 0 0 0-2.22 1.02 4 4 0 0 0-.77 1.3c-.2.51-.3 1.14-.3 1.86 0 .53.1.93.3 1.22.2.28.47.42.83.42.27 0 .5-.1.68-.3.18-.21.33-.46.44-.74v-3.08c0-.1 0-.18-.02-.25a.96.96 0 0 0-.03-.16l-.02-.12a.66.66 0 0 1 0-.1c0-.11.04-.2.14-.25.1-.07.23-.1.37-.1.33 0 .6.09.79.26.2.17.3.38.3.62v3.3a1.15 1.15 0 0 0 .16.63c.04.08.1.15.2.21.09.05.19.08.3.08z"/><path d="M20.28 5.6l.5.03a10.79 10.79 0 0 0 1.3.03V2.28a1.2 1.2 0 0 0-.17-.66.19.19 0 0 1-.03-.1c0-.04.02-.07.06-.1l.15-.06c.07-.02.14-.04.2-.04l.23-.02c.33 0 .6.09.78.26.2.17.3.38.3.62v3.5a100.76 100.76 0 0 0 3.98-.08c.1-.1.16-.14.21-.11.06.02.1.09.11.18.02.1.03.22.01.37-.01.14-.04.28-.08.42-.04.13-.09.24-.16.34-.07.1-.14.14-.23.14-.8.02-1.5.04-2.13.04H23.6v6.34c0 .33.06.56.18.7.12.15.3.22.5.22a.7.7 0 0 0 .52-.22c.15-.14.27-.32.38-.53.1-.22.2-.45.26-.7l.18-.71c.04-.2.1-.36.2-.45.08-.1.18-.15.28-.15.07 0 .16.03.24.08.08.05.16.11.22.19.08.08.13.16.17.26.05.1.07.2.07.3v.04a4.13 4.13 0 0 1-.94 2.14c-.23.3-.5.56-.82.76-.32.2-.7.3-1.12.3-.27 0-.52-.04-.74-.12-.23-.08-.42-.2-.58-.4-.16-.17-.29-.4-.38-.67a3.3 3.3 0 0 1-.14-1.02V6.98h-.6a25.86 25.86 0 0 1-.78-.04.53.53 0 0 1-.41-.2c-.13-.14-.21-.3-.26-.47a.8.8 0 0 1-.02-.46c.03-.14.12-.21.27-.21z"/><path d="M23.9 5.6l.5.03a10.79 10.79 0 0 0 1.31.03V2.28a1.2 1.2 0 0 0-.17-.66.19.19 0 0 1-.03-.1c0-.04.02-.07.06-.1l.15-.06c.07-.02.14-.04.21-.04l.22-.02c.34 0 .6.09.79.26.2.17.29.38.29.62v3.5a100.76 100.76 0 0 0 3.98-.08c.1-.1.17-.14.22-.11.06.02.1.09.1.18.02.1.03.22.01.37 0 .14-.03.28-.07.42-.04.13-.1.24-.17.34-.06.1-.14.14-.22.14-.8.02-1.51.04-2.13.04h-1.72v6.34c0 .33.06.56.18.7.13.15.3.22.5.22a.7.7 0 0 0 .52-.22c.15-.14.28-.32.38-.53.11-.22.2-.45.26-.7.08-.25.13-.49.18-.71.04-.2.1-.36.2-.45.09-.1.18-.15.28-.15.08 0 .16.03.24.08.09.05.16.11.23.19s.12.16.16.26c.05.1.07.2.07.3v.04a4.13 4.13 0 0 1-.94 2.14c-.22.3-.5.56-.82.76-.32.2-.69.3-1.12.3-.27 0-.51-.04-.74-.12-.22-.08-.41-.2-.58-.4-.16-.17-.29-.4-.38-.67a3.3 3.3 0 0 1-.14-1.02V6.98h-.6a25.86 25.86 0 0 1-.78-.04.53.53 0 0 1-.41-.2c-.13-.14-.21-.3-.26-.47a.8.8 0 0 1-.02-.46c.04-.14.12-.21.27-.21z"/><path d="M33.95 9.18a3.91 3.91 0 0 1-.76 2.26c-.25.34-.56.65-.93.93s-.79.48-1.27.63c.06.17.15.33.25.49a1.85 1.85 0 0 0 1.6.75c.4 0 .73-.07 1.01-.22s.51-.34.7-.58c.2-.24.35-.51.47-.81.12-.3.2-.6.27-.91.04-.22.13-.37.27-.44.14-.08.29-.1.43-.06.15.04.27.12.38.25.11.13.16.28.14.45a6.14 6.14 0 0 1-.41 1.49c-.13.27-.29.53-.48.79a3.2 3.2 0 0 1-.7.68c-.29.2-.61.37-1 .5-.37.11-.8.18-1.3.18a3.47 3.47 0 0 1-3.25-2.28 5.65 5.65 0 0 1 .66-4.85c.3-.4.62-.7.99-.93a2.1 2.1 0 0 1 1.12-.34c.28 0 .53.05.75.14.23.1.42.24.58.42.15.18.27.4.35.64.08.25.13.52.13.82zm-3.23 2.36l.01.18.01.18a2.77 2.77 0 0 0 1.2-1.07 3.07 3.07 0 0 0 .44-1.63c0-.22-.03-.4-.11-.52-.07-.12-.17-.18-.3-.18-.17 0-.31.05-.44.16s-.24.26-.34.44c-.09.18-.17.38-.23.6a7.76 7.76 0 0 0-.24 1.84z"/><path d="M39.64 15.56a2.6 2.6 0 0 1-.72-.11 1.77 1.77 0 0 1-1.15-1.07c-.13-.29-.19-.66-.19-1.1 0-.64.08-1.32.25-2.04.18-.72.43-1.52.76-2.38h-1.75a24.23 24.23 0 0 1-.28 2.72 7.4 7.4 0 0 1-.22.96c-.07.2-.17.33-.31.36a.55.55 0 0 1-.41-.07.94.94 0 0 1-.33-.36.64.64 0 0 1-.06-.49 12.89 12.89 0 0 0 .22-1.65 24.85 24.85 0 0 0 .09-1.83 2 2 0 0 1-.62-.52 1.23 1.23 0 0 1-.24-.76.86.86 0 0 1 .3-.67 1.1 1.1 0 0 1 .7-.25c.12 0 .24.02.37.05.13.03.25.09.36.17.12.09.22.2.31.34.1.13.17.3.23.5a184.27 184.27 0 0 0 .7.07l.2.01h1.19c.06 0 .15.04.26.1.12.08.23.17.34.3.11.1.2.22.27.35.08.13.11.26.1.37a36.34 36.34 0 0 0-.66 2.57c-.08.33-.13.67-.18 1.02-.04.34-.07.68-.07 1.01 0 .14.02.27.05.4.03.13.08.25.15.36.06.1.15.17.24.23a.86.86 0 0 0 .95-.13c.16-.14.3-.32.41-.53.11-.22.2-.45.26-.7.08-.25.13-.49.18-.71.04-.2.1-.36.2-.45.09-.1.18-.15.28-.15.08 0 .16.03.24.08.09.05.16.11.23.19s.12.16.16.26c.05.1.07.2.07.3v.07l-.02.06c-.09.33-.21.68-.36 1.05-.14.36-.33.7-.56 1-.22.3-.5.56-.82.76-.32.2-.69.3-1.12.3z"/></svg>