<svg viewBox="0 0 50 50" fill="none" xmlns="http://www.w3.org/2000/svg"><path d="M31.134 20.033l-2.52-.092-.546 14.83 2.52.092.546-14.83zM26.26 19.987h-2.52v14.83h2.52v-14.83zM21.931 34.77l-.546-14.83-2.52.092.547 14.83 2.52-.091z"/><path d="M10 13.804v2.507h2.627l2.084 23.546A1.257 1.257 0 0 0 15.966 41h18.025c.654 0 1.199-.497 1.256-1.144l2.084-23.545H40v-2.507H10zm22.837 24.69H17.12L15.158 16.31H34.8l-1.963 22.182z"/><path d="M29.118 9h-8.236c-1.158 0-2.1.937-2.1 2.089v3.968h2.52v-3.55h7.396v3.55h2.52V11.09A2.097 2.097 0 0 0 29.118 9z"/></svg>