<svg xmlns="http://www.w3.org/2000/svg" viewBox="0 0 80 80">
  <g fill="none" fill-rule="evenodd">
    <path fill="#1872FF" d="M53.697 47.768H13.665c0-6.106 4.169-11.056 9.31-11.056.796 0 1.568.118 2.305.341 2.547-4.68 6.613-8.08 11.194-8.08a9.57 9.57 0 0 1 3.247.576c2.833-2.456 6.333-3.894 10.252-3.894 10.284 0 12.568 13.268 3.724 22.113z"/>
    <path fill="#0418FF" fill-opacity=".913" d="M60.386 55.558h-46.72c0-6.106 4.864-11.056 10.865-11.056.928 0 1.83.118 2.69.341 2.972-4.68 7.718-8.08 13.064-8.08 1.305 0 2.574.202 3.79.576 3.306-2.456 7.391-3.894 11.965-3.894 12.002 0 14.668 13.268 4.346 22.113z"/>
  </g>
</svg>
