<svg xmlns="http://www.w3.org/2000/svg" viewBox="0 0 80 80">
  <g fill="none" fill-rule="evenodd">
    <path fill="#FFF" fill-opacity=".664" d="M23.65 24h32.881a1 1 0 0 1 .944 1.33l-6.419 18.34a1 1 0 0 0 0 .66l6.419 18.34A1 1 0 0 1 56.53 64H23.65a1 1 0 0 1-.944-.67l-6.65-19a1 1 0 0 1 0-.66l6.65-19a1 1 0 0 1 .944-.67z"/>
    <path fill="#FFF" fill-opacity=".915" d="M29.65 20h32.881a1 1 0 0 1 .944 1.33l-6.419 18.34a1 1 0 0 0 0 .66l6.419 18.34A1 1 0 0 1 62.53 60H29.65a1 1 0 0 1-.944-.67l-6.65-19a1 1 0 0 1 0-.66l6.65-19a1 1 0 0 1 .944-.67z"/>
    <path fill="#00BEFF" d="M30.027 32H49.74a.622.622 0 0 1 .493 1l-.466.608a1 1 0 0 1-.794.392H29.26a.622.622 0 0 1-.493-1l.466-.608a1 1 0 0 1 .794-.392z"/>
    <path fill="#0F92FE" d="M46.45 27h16.48a.738.738 0 0 1 .69 1l-.135.355a1 1 0 0 1-.935.645H46.07a.738.738 0 0 1-.69-1l.135-.355A1 1 0 0 1 46.45 27z"/>
    <path fill="#62B8FF" d="M34.105 48h2.89a.91.91 0 0 1 .905 1l-.01.1a1 1 0 0 1-.995.9h-2.89a.91.91 0 0 1-.905-1l.01-.1a1 1 0 0 1 .995-.9zm6 0h2.89a.91.91 0 0 1 .905 1l-.01.1a1 1 0 0 1-.995.9h-2.89a.91.91 0 0 1-.905-1l.01-.1a1 1 0 0 1 .995-.9zm6 0h2.89a.91.91 0 0 1 .905 1l-.01.1a1 1 0 0 1-.995.9h-2.89a.91.91 0 0 1-.905-1l.01-.1a1 1 0 0 1 .995-.9z"/>
    <path fill="#0F92FE" d="M34.22 27h7.76a.836.836 0 0 1 .82 1l-.04.196a1 1 0 0 1-.98.804h-7.76a.836.836 0 0 1-.82-1l.04-.196a1 1 0 0 1 .98-.804z"/>
  </g>
</svg>
