<svg xmlns="http://www.w3.org/2000/svg" viewBox="0 0 80 80">
  <g fill="none" fill-rule="evenodd" transform="translate(21 18)">
    <path fill="#FFF" fill-opacity=".12" fill-rule="nonzero" d="M15 42.5c12.282-2.66 19.949-6.66 23-12 4.577-8.01-1.5-20-3-23-1-2-10.833 1-29.5 9l9.5 26z"/>
    <path fill="#000" fill-opacity=".169" d="M6.273 26.518l-3.437-6.27 13.966-5.006c1.79-.454 3.667.48 4.306 2.209.639 1.728-.19 3.633-1.862 4.404L6.273 26.518zm4.268 7.784l-3.437-6.27 11.743-4.21c1.816-.462 3.716.464 4.354 2.192.639 1.729-.212 3.641-1.91 4.422l-10.75 3.866zm4.247 7.746l-3.437-6.269 10.129-3.63c1.791-.455 3.672.479 4.31 2.207.639 1.728-.193 3.634-1.867 4.406l-9.135 3.286zm2.745-32.47c.639 1.729-.203 3.638-1.89 4.415L2.592 18.686l.826-7.34L13.2 7.379c1.804-.459 3.694.47 4.333 2.2z"/>
    <path fill="#FFF" d="M4.273 29.518l-3.437-6.27 13.966-5.006c1.79-.454 3.667.48 4.306 2.209.639 1.728-.19 3.633-1.862 4.404L4.273 29.518zm4.268 7.784l-3.437-6.27 11.743-4.21c1.816-.462 3.716.464 4.354 2.192.639 1.729-.212 3.641-1.91 4.422L8.54 37.302zm4.247 7.746l-3.437-6.269 10.129-3.63c1.791-.455 3.672.479 4.31 2.207.639 1.728-.193 3.634-1.867 4.406l-9.135 3.286zm2.745-32.47c.639 1.729-.203 3.638-1.89 4.415L.592 21.686l.826-7.34 9.782-3.967c1.804-.459 3.694.47 4.333 2.2z"/>
    <path fill="#FFF" d="M21.664 13.447c-1.617-.488-2.546-2.177-2.179-3.864l1.878-6.133A4.045 4.045 0 0 1 26.346.746c3.365.965 4.042 1.67 3.474 3.504-.007.022-.622 2.173-.63 2.196l-2.006 5.344c-.664 1.598-3.903 2.145-5.52 1.657zm-1.164-3.2l5 1.156a.852.852 0 0 0-.554-1.22l-3.324-.815a.906.906 0 0 0-1.122.88z"/>
  </g>
</svg>
