<svg viewBox="0 0 22 18"><path fill-rule="evenodd" d="M21.403 2.922a8.574 8.574 0 0 1-2.471.678 4.317 4.317 0 0 0 1.892-2.379 8.635 8.635 0 0 1-2.732 1.043A4.298 4.298 0 0 0 14.951.906a4.302 4.302 0 0 0-4.19 5.281 12.212 12.212 0 0 1-8.868-4.495 4.3 4.3 0 0 0 1.331 5.743 4.28 4.28 0 0 1-1.948-.537l-.001.054a4.305 4.305 0 0 0 3.452 4.218 4.37 4.37 0 0 1-1.943.073 4.304 4.304 0 0 0 4.019 2.987 8.634 8.634 0 0 1-5.344 1.841c-.347 0-.689-.02-1.026-.06a12.176 12.176 0 0 0 6.595 1.933c7.913 0 12.241-6.555 12.241-12.239 0-.186-.004-.371-.013-.556a8.71 8.71 0 0 0 2.147-2.227z"/></svg>